<?xml version="1.0" ?><svg height="32" id="svg17515" version="1.1" viewBox="0 0 32 32.000001" width="32" xmlns="http://www.w3.org/2000/svg" xmlns:cc="http://creativecommons.org/ns#" xmlns:dc="http://purl.org/dc/elements/1.1/" xmlns:inkscape="http://www.inkscape.org/namespaces/inkscape" xmlns:rdf="http://www.w3.org/1999/02/22-rdf-syntax-ns#" xmlns:sodipodi="http://sodipodi.sourceforge.net/DTD/sodipodi-0.dtd" xmlns:svg="http://www.w3.org/2000/svg"><defs id="defs17517"><clipPath clipPathUnits="userSpaceOnUse" id="clipPath32617-9-8-8-9"><circle cx="-64.623535" cy="50.047192" id="path32619-2-3-5-1" r="38.553814" style="fill:#4bb7c0;fill-opacity:1;stroke:none" transform="matrix(9.3443438,0,0,9.3443438,-627.91229,-5859.5225)"/></clipPath><clipPath clipPathUnits="userSpaceOnUse" id="clipPath19550"><circle cx="-64.623535" cy="50.047192" id="circle19552" r="38.553814" style="fill:#4bb7c0;fill-opacity:1;stroke:none" transform="matrix(9.3443438,0,0,9.3443438,-627.91229,-5859.5225)"/></clipPath></defs><g id="layer1" transform="translate(0,-1020.3622)"><g id="g41966" style="display:inline" transform="translate(812.47741,83.763331)"><path d="m -799.3924,949.14852 c 0.57628,0.90069 1.24441,1.20226 2.06811,1.65444 -0.0266,0.0389 -0.16132,0.24009 -0.38618,0.50232 -0.24568,0.28665 -0.56568,0.59459 -0.82514,0.68578 -0.41296,0.14511 -0.94732,0.14522 -1.44346,0.0724 -0.47605,-0.0702 -0.90801,-0.20659 -1.17123,-0.33139 0.0476,-0.69626 0.0548,-1.34229 0.0549,-1.36541 0.01,2.2e-4 0.0193,0 0.0295,0 0.78634,0 1.4452,-0.51625 1.67349,-1.22181 z" id="path40113" style="color:#000000;font-style:normal;font-variant:normal;font-weight:normal;font-stretch:normal;font-size:medium;line-height:normal;font-family:sans-serif;text-indent:0;text-align:start;text-decoration:none;text-decoration-line:none;text-decoration-style:solid;text-decoration-color:#000000;letter-spacing:normal;word-spacing:normal;text-transform:none;direction:ltr;writing-mode:lr-tb;baseline-shift:baseline;text-anchor:start;white-space:normal;clip-rule:nonzero;display:inline;overflow:visible;visibility:visible;opacity:1;isolation:auto;mix-blend-mode:normal;color-interpolation:sRGB;color-interpolation-filters:linearRGB;solid-color:#000000;solid-opacity:1;fill:#a78e68;fill-opacity:1;fill-rule:evenodd;stroke:none;stroke-width:0.1;stroke-linecap:round;stroke-linejoin:round;stroke-miterlimit:4;stroke-dasharray:none;stroke-dashoffset:0;stroke-opacity:1;color-rendering:auto;image-rendering:auto;shape-rendering:auto;text-rendering:auto;enable-background:accumulate"/><path d="m -792.40009,962.09755 a 0.50004997,0.50004997 0 0 0 -0.49219,0.5078 l 0,3.4864 a 0.50004997,0.50004997 0 1 0 1,0 l 0,-3.4864 a 0.50004997,0.50004997 0 0 0 -0.50781,-0.5078 z" id="path19899" style="color:#000000;font-style:normal;font-variant:normal;font-weight:normal;font-stretch:normal;font-size:medium;line-height:normal;font-family:sans-serif;text-indent:0;text-align:start;text-decoration:none;text-decoration-line:none;text-decoration-style:solid;text-decoration-color:#000000;letter-spacing:normal;word-spacing:normal;text-transform:none;direction:ltr;writing-mode:lr-tb;baseline-shift:baseline;text-anchor:start;white-space:normal;clip-rule:nonzero;display:inline;overflow:visible;visibility:visible;opacity:1;isolation:auto;mix-blend-mode:normal;color-interpolation:sRGB;color-interpolation-filters:linearRGB;solid-color:#000000;solid-opacity:1;fill:#a78e68;fill-opacity:1;fill-rule:evenodd;stroke:none;stroke-width:0.99999994px;stroke-linecap:round;stroke-linejoin:round;stroke-miterlimit:4;stroke-dasharray:none;stroke-dashoffset:0;stroke-opacity:1;color-rendering:auto;image-rendering:auto;shape-rendering:auto;text-rendering:auto;enable-background:accumulate"/><path d="m -793.66314,939.53275 c 0.005,6.4e-4 0.009,6.4e-4 0.0139,0 0.66326,6.1e-4 1.2766,0.34484 1.61763,0.90457 0.0162,0.0258 0.0515,0.0315 0.075,0.0121 0.34026,-0.28255 0.77145,-0.43808 1.21668,-0.43848 0.62903,6e-4 1.21582,0.30954 1.56627,0.82357 0.0129,0.0206 0.0387,0.0291 0.0613,0.0202 0.21612,-0.0819 0.44579,-0.1258 0.67746,-0.1264 0.67664,0.001 1.29935,0.35818 1.6354,0.93612 0.009,0.0156 0.0255,0.0252 0.0435,0.0253 l 0.002,0 c 0.0529,0 0.0982,-0.0121 0.13629,-0.0121 0.95787,0 1.7632,0.70919 1.87438,1.64532 0.002,0.0113 0.007,0.0216 0.0158,0.0293 0.008,0.007 0.0172,0.0124 0.0276,0.0141 0.95137,0.10972 1.66899,0.90235 1.67096,1.84485 -5.8e-4,0.22804 -0.0449,0.45294 -0.12839,0.66561 -0.009,0.0226 -9e-4,0.0486 0.0197,0.0617 0.52202,0.34544 0.83491,0.92358 0.83548,1.54257 -3.9e-4,0.43808 -0.15768,0.8619 -0.4444,1.19693 -0.021,0.0237 -0.0153,0.0606 0.0118,0.0769 0.56849,0.33624 0.91581,0.94118 0.91645,1.59385 -0.001,0.65196 -0.34854,1.25416 -0.91645,1.59 -0.0271,0.0163 -0.0328,0.0532 -0.0118,0.0769 0.28714,0.33554 0.44446,0.76006 0.4444,1.19885 -6.4e-4,0.61889 -0.31353,1.19713 -0.83548,1.54258 -0.0206,0.0131 -0.0289,0.0391 -0.0197,0.0617 0.0835,0.21266 0.12783,0.43757 0.12839,0.66561 -8.8e-4,0.9426 -0.71763,1.73603 -1.66898,1.84666 -0.0227,0.003 -0.0405,0.0208 -0.0435,0.0435 -0.11221,0.93592 -0.91847,1.64239 -1.87636,1.6433 -0.0381,0 -0.0834,-0.0121 -0.13629,-0.0121 -0.018,1.1e-4 -0.0345,0.01 -0.0435,0.0253 -0.33587,0.57925 -0.95968,0.93744 -1.63738,0.93815 -0.23176,-6.1e-4 -0.46149,-0.0415 -0.67746,-0.12438 -0.0216,-0.008 -0.046,-7e-4 -0.0593,0.0182 -0.35048,0.51402 -0.93924,0.82316 -1.56825,0.82367 -0.44518,-2e-4 -0.87439,-0.15594 -1.2147,-0.43848 -0.0224,-0.017 -0.0543,-0.0124 -0.0711,0.0101 -0.002,0.003 -0.004,0.007 -0.006,0.0101 -0.34108,0.55963 -0.9544,0.90195 -1.61763,0.90255 -0.66256,0 -1.2749,-0.34342 -1.61564,-0.90255 -0.0154,-0.0281 -0.0527,-0.0349 -0.0771,-0.0142 -0.34078,0.28284 -0.77084,0.43858 -1.21667,0.43848 -0.62901,-5.1e-4 -1.21778,-0.30965 -1.56824,-0.82367 -0.0133,-0.0189 -0.0377,-0.0264 -0.0593,-0.0182 -0.21609,0.0819 -0.44577,0.12378 -0.67746,0.12439 -0.69013,3e-4 -1.32521,-0.37043 -1.65713,-0.96586 -0.0111,-0.0182 -0.0324,-0.0276 -0.0533,-0.0233 -0.11534,0.0222 -0.23175,0.0313 -0.3496,0.0313 -0.97462,0 -1.78705,-0.73003 -1.87834,-1.68476 -0.002,-0.0222 -0.0177,-0.0407 -0.0395,-0.0455 -0.40321,-0.10011 -1.03185,-0.56348 -1.22282,-0.85513 0.64555,-0.22238 1.22224,-0.68442 1.63737,-1.22848 0.57639,-0.75551 0.98854,-1.53781 1.19912,-2.45523 0.0606,-0.26384 0.0956,-0.61687 0.12246,-0.97172 0.2621,0.11923 0.65243,0.23977 1.09026,0.30419 0.47434,0.0698 0.98624,0.0738 1.39839,-0.0708 0.28353,-0.10012 0.58149,-0.39814 0.81572,-0.67148 0.23424,-0.27324 0.40095,-0.52343 0.40095,-0.52343 0.0153,-0.0244 0.007,-0.0566 -0.0178,-0.0708 -0.82084,-0.45446 -1.43945,-0.70535 -1.98697,-1.59587 -0.003,-0.005 -0.006,-0.009 -0.0101,-0.0121 0.0295,-0.12247 0.0494,-0.24797 0.0494,-0.37923 -6e-5,-0.90477 -0.86642,-1.2331 -1.77818,-1.2331 -0.0463,8.1e-4 -0.0922,0.0101 -0.13826,0.0121 0,-0.90477 -0.74138,-1.63935 -1.65317,-1.63935 -0.2938,5e-4 -0.57853,0.086 -0.83153,0.23309 -0.15475,-0.216 -0.37438,-0.37518 -0.62612,-0.4405 5.2e-4,-0.95635 0.72242,-2.06442 1.55105,-2.27072 0.0203,-0.005 0.0353,-0.0226 0.0375,-0.0435 0.0913,-0.95554 0.90495,-1.68638 1.88031,-1.68678 0.11833,0 0.23536,0.0101 0.35158,0.0293 0.0207,0.004 0.0419,-0.004 0.0533,-0.0222 0.3321,-0.59421 0.96609,-0.96383 1.65515,-0.96383 0.23177,5.1e-4 0.4615,0.0415 0.67747,0.12449 0.0192,0.008 0.0411,0.003 0.0553,-0.0121 0.002,-0.004 0.003,-0.008 0.004,-0.0121 0.35049,-0.51393 0.93924,-0.82297 1.56824,-0.82357 0.44583,-10e-5 0.87589,0.15563 1.21667,0.43848 0.0244,0.0208 0.0617,0.0139 0.0771,-0.0142 0.33779,-0.55437 0.94591,-0.8889 1.60182,-0.89476 z" id="path40117" style="color:#000000;font-style:normal;font-variant:normal;font-weight:normal;font-stretch:normal;font-size:medium;line-height:normal;font-family:sans-serif;text-indent:0;text-align:start;text-decoration:none;text-decoration-line:none;text-decoration-style:solid;text-decoration-color:#000000;letter-spacing:normal;word-spacing:normal;text-transform:none;direction:ltr;writing-mode:lr-tb;baseline-shift:baseline;text-anchor:start;white-space:normal;clip-rule:nonzero;display:inline;overflow:visible;visibility:visible;opacity:1;isolation:auto;mix-blend-mode:normal;color-interpolation:sRGB;color-interpolation-filters:linearRGB;solid-color:#000000;solid-opacity:1;fill:#c3d5d4;fill-opacity:1;fill-rule:evenodd;stroke:none;stroke-width:0.1;stroke-linecap:round;stroke-linejoin:round;stroke-miterlimit:4;stroke-dasharray:none;stroke-dashoffset:0;stroke-opacity:1;color-rendering:auto;image-rendering:auto;shape-rendering:auto;text-rendering:auto;enable-background:accumulate"/><path d="m -809.44128,949.14895 c 0.25811,0.7436 0.9529,1.2839 1.78512,1.3021 5.6e-4,0.041 0.0109,0.5967 0.0575,1.2362 -0.26305,0.1295 -0.71667,0.2818 -1.20852,0.3639 -0.49783,0.083 -1.03258,0.094 -1.44895,-0.049 -0.26193,-0.089 -0.58444,-0.3999 -0.83192,-0.6894 -0.22656,-0.265 -0.36263,-0.469 -0.38936,-0.5085 0.82699,-0.4546 1.45872,-0.7528 2.03618,-1.6553 z" id="path40111" style="color:#000000;font-style:normal;font-variant:normal;font-weight:normal;font-stretch:normal;font-size:medium;line-height:normal;font-family:sans-serif;text-indent:0;text-align:start;text-decoration:none;text-decoration-line:none;text-decoration-style:solid;text-decoration-color:#000000;letter-spacing:normal;word-spacing:normal;text-transform:none;direction:ltr;writing-mode:lr-tb;baseline-shift:baseline;text-anchor:start;white-space:normal;clip-rule:nonzero;display:inline;overflow:visible;visibility:visible;opacity:1;isolation:auto;mix-blend-mode:normal;color-interpolation:sRGB;color-interpolation-filters:linearRGB;solid-color:#000000;solid-opacity:1;fill:#a78e68;fill-opacity:1;fill-rule:evenodd;stroke:none;stroke-width:0.1;stroke-linecap:round;stroke-linejoin:round;stroke-miterlimit:4;stroke-dasharray:none;stroke-dashoffset:0;stroke-opacity:1;color-rendering:auto;image-rendering:auto;shape-rendering:auto;text-rendering:auto;enable-background:accumulate"/><path d="m -804.21875,949.37005 c 0.29445,0.2481 0.66182,0.3959 1.04883,0.3965 0.29291,-5e-4 0.57853,-0.086 0.83008,-0.2344 0.26615,0.4762 0.74178,0.794 1.2832,0.8399 -3e-5,0.01 -0.008,0.6302 -0.0527,1.2793 a 0.05029365,0.05029365 0 0 0 -0.004,0.055 c -0.0263,0.3623 -0.061,0.7244 -0.1211,0.9863 -0.20771,0.905 -0.45824,1.8488 -1.01171,2.5742 -0.40583,0.5319 -0.9757,0.9873 -1.60157,1.1953 -0.34505,0.1147 -0.74566,0.116 -1.08984,0 -0.61674,-0.2081 -1.17159,-0.6677 -1.57031,-1.1953 -0.55034,-0.7282 -0.80188,-1.6688 -1.01367,-2.5742 -0.16663,-0.7126 -0.18859,-2.1729 -0.18946,-2.2305 0.52927,-0.02 1.01571,-0.2819 1.33985,-0.6992 0.25715,0.1352 0.54272,0.2128 0.83398,0.2129 0.50762,-2e-4 0.98044,-0.2315 1.31836,-0.6055 z" id="path15202-5-4-8-3-9" style="color:#000000;font-style:normal;font-variant:normal;font-weight:normal;font-stretch:normal;font-size:medium;line-height:normal;font-family:sans-serif;text-indent:0;text-align:start;text-decoration:none;text-decoration-line:none;text-decoration-style:solid;text-decoration-color:#000000;letter-spacing:normal;word-spacing:normal;text-transform:none;direction:ltr;writing-mode:lr-tb;baseline-shift:baseline;text-anchor:start;white-space:normal;clip-rule:nonzero;display:inline;overflow:visible;visibility:visible;opacity:1;isolation:auto;mix-blend-mode:normal;color-interpolation:sRGB;color-interpolation-filters:linearRGB;solid-color:#000000;solid-opacity:1;fill:#e1e1e6;fill-opacity:1;fill-rule:evenodd;stroke:none;stroke-width:0.1;stroke-linecap:round;stroke-linejoin:round;stroke-miterlimit:4;stroke-dasharray:none;stroke-dashoffset:0;stroke-opacity:1;color-rendering:auto;image-rendering:auto;shape-rendering:auto;text-rendering:auto;enable-background:accumulate"/><path d="m -805.14221,952.09845 a 0.49999994,0.49999994 0 0 1 -0.5,0.5 0.49999994,0.49999994 0 0 1 -0.5,-0.5 0.49999994,0.49999994 0 0 1 0.5,-0.5 0.49999994,0.49999994 0 0 1 0.5,0.5 z" id="ellipse21785-4-2" style="opacity:1;fill:#43b6c2;fill-opacity:1;stroke:none;stroke-width:0.99999988;stroke-linecap:round;stroke-linejoin:round;stroke-miterlimit:4;stroke-dasharray:none;stroke-dashoffset:0;stroke-opacity:1"/><path d="m -802.64221,952.09845 a 0.49999994,0.49999994 0 0 1 -0.5,0.5 0.49999994,0.49999994 0 0 1 -0.5,-0.5 0.49999994,0.49999994 0 0 1 0.5,-0.5 0.49999994,0.49999994 0 0 1 0.5,0.5 z" id="ellipse21787-2-1" style="opacity:1;fill:#43b6c2;fill-opacity:1;stroke:none;stroke-width:0.99999988;stroke-linecap:round;stroke-linejoin:round;stroke-miterlimit:4;stroke-dasharray:none;stroke-dashoffset:0;stroke-opacity:1"/><path d="m -795.90009,962.09755 a 0.50004997,0.50004997 0 0 0 -0.49219,0.5078 l 0,3.4864 a 0.50004997,0.50004997 0 1 0 1,0 l 0,-3.4864 a 0.50004997,0.50004997 0 0 0 -0.50781,-0.5078 z" id="path19876" style="color:#000000;font-style:normal;font-variant:normal;font-weight:normal;font-stretch:normal;font-size:medium;line-height:normal;font-family:sans-serif;text-indent:0;text-align:start;text-decoration:none;text-decoration-line:none;text-decoration-style:solid;text-decoration-color:#000000;letter-spacing:normal;word-spacing:normal;text-transform:none;direction:ltr;writing-mode:lr-tb;baseline-shift:baseline;text-anchor:start;white-space:normal;clip-rule:nonzero;display:inline;overflow:visible;visibility:visible;opacity:1;isolation:auto;mix-blend-mode:normal;color-interpolation:sRGB;color-interpolation-filters:linearRGB;solid-color:#000000;solid-opacity:1;fill:#a78e68;fill-opacity:1;fill-rule:evenodd;stroke:none;stroke-width:0.99999994px;stroke-linecap:round;stroke-linejoin:round;stroke-miterlimit:4;stroke-dasharray:none;stroke-dashoffset:0;stroke-opacity:1;color-rendering:auto;image-rendering:auto;shape-rendering:auto;text-rendering:auto;enable-background:accumulate"/><path d="m -799.08984,949.25478 c -0.0217,0.0669 -0.0654,0.1219 -0.0937,0.18555 0.44186,0.57453 0.94067,0.85776 1.55078,1.1875 -0.54315,-0.32573 -1.02612,-0.69566 -1.45703,-1.36915 z m 1.67773,1.50976 c 0.0108,0.016 0.0227,0.0332 0.0117,0.0508 0,0 -0.16615,0.2502 -0.40039,0.52344 -0.23423,0.27334 -0.53288,0.57176 -0.81641,0.67188 -0.41215,0.1446 -0.9241,0.14011 -1.39843,0.0703 -0.43783,-0.0644 -0.82775,-0.18546 -1.08985,-0.30469 -0.0269,0.35485 -0.0625,0.70882 -0.12305,0.97266 -0.21058,0.91742 -0.62282,1.69956 -1.19921,2.45507 -0.41513,0.54406 -0.99117,1.00614 -1.63672,1.22852 0.12731,0.19443 0.44965,0.45792 0.76953,0.64648 0.37651,-0.25479 0.71864,-0.57176 0.99023,-0.92773 0.62356,-0.81726 0.90465,-1.88078 1.13867,-2.90039 0.0652,-0.28399 0.10353,-0.67763 0.13282,-1.07031 0.29874,0.13675 0.76437,0.28481 1.2832,0.36133 0.55897,0.082 1.15975,0.0834 1.625,-0.0801 0.29232,-0.10274 0.6529,-0.45049 0.92969,-0.77344 0.25334,-0.29544 0.40558,-0.52064 0.43554,-0.56446 -0.22799,-0.12516 -0.44441,-0.24218 -0.65234,-0.35937 z" id="path41916" style="color:#000000;font-style:normal;font-variant:normal;font-weight:normal;font-stretch:normal;font-size:medium;line-height:normal;font-family:sans-serif;text-indent:0;text-align:start;text-decoration:none;text-decoration-line:none;text-decoration-style:solid;text-decoration-color:#000000;letter-spacing:normal;word-spacing:normal;text-transform:none;direction:ltr;writing-mode:lr-tb;baseline-shift:baseline;text-anchor:start;white-space:normal;clip-rule:nonzero;display:inline;overflow:visible;visibility:visible;opacity:1;isolation:auto;mix-blend-mode:normal;color-interpolation:sRGB;color-interpolation-filters:linearRGB;solid-color:#000000;solid-opacity:1;fill:#b6c6c5;fill-opacity:1;fill-rule:evenodd;stroke:none;stroke-width:0.09999999;stroke-linecap:round;stroke-linejoin:round;stroke-miterlimit:4;stroke-dasharray:none;stroke-dashoffset:0;stroke-opacity:1;color-rendering:auto;image-rendering:auto;shape-rendering:auto;text-rendering:auto;enable-background:accumulate"/><path d="m -804.21875,949.35439 c -0.33792,0.374 -0.81074,0.60527 -1.31836,0.60547 -0.29126,-1e-4 -0.57683,-0.0777 -0.83398,-0.21289 -0.32414,0.4173 -0.81058,0.67921 -1.33985,0.69921 2.7e-4,0.0174 0.012,0.31109 0.0195,0.5254 0.49316,-0.0412 0.94983,-0.27996 1.24414,-0.67969 a 0.05089427,0.05089427 0 0 1 0.0664,-0.0176 c 0.2528,0.13748 0.53577,0.21084 0.82422,0.21094 0.50241,-2e-4 0.97908,-0.21854 1.30469,-0.59766 a 0.05089427,0.05089427 0 0 1 0.0703,0 c 0.28498,0.25057 0.65413,0.38816 1.03516,0.38867 0.28866,-5.1e-4 0.57081,-0.0802 0.8164,-0.23047 a 0.05089427,0.05089427 0 0 1 0.0645,0.0117 0.05089427,0.05089427 0 0 1 0.008,0.0117 c 0.23372,0.45461 0.67848,0.74576 1.17969,0.81445 0.005,-0.17077 0.0215,-0.52322 0.0215,-0.52734 -0.54142,-0.0459 -1.01705,-0.36364 -1.2832,-0.83984 -0.25155,0.1484 -0.53717,0.23387 -0.83008,0.23437 -0.38701,-6e-4 -0.75438,-0.14838 -1.04883,-0.39648 z" id="path41924" style="color:#000000;font-style:normal;font-variant:normal;font-weight:normal;font-stretch:normal;font-size:medium;line-height:normal;font-family:sans-serif;text-indent:0;text-align:start;text-decoration:none;text-decoration-line:none;text-decoration-style:solid;text-decoration-color:#000000;letter-spacing:normal;word-spacing:normal;text-transform:none;direction:ltr;writing-mode:lr-tb;baseline-shift:baseline;text-anchor:start;white-space:normal;clip-rule:nonzero;display:inline;overflow:visible;visibility:visible;opacity:1;isolation:auto;mix-blend-mode:normal;color-interpolation:sRGB;color-interpolation-filters:linearRGB;solid-color:#000000;solid-opacity:1;fill:#d1d1d5;fill-opacity:1;fill-rule:evenodd;stroke:none;stroke-width:0.10000001;stroke-linecap:round;stroke-linejoin:round;stroke-miterlimit:4;stroke-dasharray:none;stroke-dashoffset:0;stroke-opacity:1;color-rendering:auto;image-rendering:auto;shape-rendering:auto;text-rendering:auto;enable-background:accumulate"/><path d="m -800.62891,-70.068359 c -0.14152,0.03683 -0.28403,0.07227 -0.4375,0.07227 -0.0102,0 -0.0193,2.2e-4 -0.0293,0 -10e-5,0.02312 -0.007,0.668975 -0.0547,1.365235 0.11033,0.05231 0.26325,0.105462 0.42383,0.15625 0.0116,-0.123684 0.0337,-0.218603 0.043,-0.345703 a 0.0569069,0.0569069 0 0 1 0.006,-0.0625 c 0.0414,-0.60166 0.0453,-0.989365 0.0488,-1.185547 z m -7.51171,0.07031 c 0.005,0.246615 0.0207,0.833881 0.0879,1.498047 0.17502,-0.0579 0.338,-0.119109 0.45312,-0.175781 -0.0466,-0.6395 -0.0561,-1.195328 -0.0566,-1.236328 -0.16972,-0.0037 -0.32862,-0.04159 -0.48437,-0.08594 z" id="path41941" style="color:#000000;font-style:normal;font-variant:normal;font-weight:normal;font-stretch:normal;font-size:medium;line-height:normal;font-family:sans-serif;text-indent:0;text-align:start;text-decoration:none;text-decoration-line:none;text-decoration-style:solid;text-decoration-color:#000000;letter-spacing:normal;word-spacing:normal;text-transform:none;direction:ltr;writing-mode:lr-tb;baseline-shift:baseline;text-anchor:start;white-space:normal;clip-rule:nonzero;display:inline;overflow:visible;visibility:visible;opacity:1;isolation:auto;mix-blend-mode:normal;color-interpolation:sRGB;color-interpolation-filters:linearRGB;solid-color:#000000;solid-opacity:1;fill:#9d8664;fill-opacity:1;fill-rule:evenodd;stroke:none;stroke-width:0.09999999;stroke-linecap:round;stroke-linejoin:round;stroke-miterlimit:4;stroke-dasharray:none;stroke-dashoffset:0;stroke-opacity:1;color-rendering:auto;image-rendering:auto;shape-rendering:auto;text-rendering:auto;enable-background:accumulate" transform="translate(0,1020.3622)"/><path d="m -806.11353,945.48783 0,0 a 0.05089427,0.05089427 0 0 0 0.004,0 c 0.3262,7.1e-4 0.63091,0.15816 0.81701,0.42339 a 0.05089427,0.05089427 0 0 0 0.0102,0.0122 0.05089427,0.05089427 0 0 0 0.0736,-0.0122 c 0.18646,-0.26574 0.49216,-0.42329 0.81901,-0.42339 0.33967,2e-4 0.65535,0.17017 0.83886,0.45321 a 0.05089427,0.05089427 0 0 0 0.0102,0.0122 0.05089427,0.05089427 0 0 0 0.0596,0.0102 c 0.24436,-0.14799 0.52466,-0.22809 0.81105,-0.2286 0.86247,0 1.56139,0.6922 1.56245,1.54652 -9.8e-4,0.0173 -0.002,0.0326 -0.004,0.0499 a 0.05089427,0.05089427 0 0 0 0.0576,0.056 c 0.0619,-0.0102 0.12436,-0.0122 0.18686,-0.0143 0.8631,0 1.56239,0.69149 1.56246,1.54663 0,0.85514 -0.69932,1.54845 -1.56246,1.54845 -0.58735,1.1e-4 -1.12491,-0.3262 -1.39151,-0.84476 a 0.05089427,0.05089427 0 0 0 -0.008,-0.0122 0.05089427,0.05089427 0 0 0 -0.0636,-0.0102 c -0.24559,0.15023 -0.52835,0.23012 -0.81701,0.23063 -0.38103,-5.1e-4 -0.74871,-0.13903 -1.03369,-0.3896 a 0.05089427,0.05089427 0 0 0 -0.0716,0 c -0.32561,0.37912 -0.80163,0.59815 -1.30404,0.59835 -0.28845,-10e-5 -0.57216,-0.0733 -0.82496,-0.21078 a 0.05089427,0.05089427 0 0 0 -0.0655,0.0163 c -0.32223,0.43765 -0.83685,0.69678 -1.38355,0.69769 -0.94794,0 -1.71354,-0.76242 -1.71354,-1.70163 5e-5,-0.63968 0.36091,-1.2246 0.93628,-1.51467 a 0.05089427,0.05089427 0 0 0 0.0279,-0.0499 c -0.002,-0.0254 -0.004,-0.0509 -0.004,-0.0753 1.4e-4,-0.54665 0.44594,-0.98786 0.9979,-0.98797 0.14692,2.1e-4 0.2926,0.0336 0.4254,0.0957 a 0.05089427,0.05089427 0 0 0 0.0716,-0.0356 c 0.0953,-0.45912 0.50302,-0.78776 0.97604,-0.78919 z" id="path40115" style="color:#000000;font-style:normal;font-variant:normal;font-weight:normal;font-stretch:normal;font-size:medium;line-height:normal;font-family:sans-serif;text-indent:0;text-align:start;text-decoration:none;text-decoration-line:none;text-decoration-style:solid;text-decoration-color:#000000;letter-spacing:normal;word-spacing:normal;text-transform:none;direction:ltr;writing-mode:lr-tb;baseline-shift:baseline;text-anchor:start;white-space:normal;clip-rule:nonzero;display:inline;overflow:visible;visibility:visible;opacity:1;isolation:auto;mix-blend-mode:normal;color-interpolation:sRGB;color-interpolation-filters:linearRGB;solid-color:#000000;solid-opacity:1;fill:#c3d5d4;fill-opacity:1;fill-rule:evenodd;stroke:none;stroke-width:0.10000001;stroke-linecap:round;stroke-linejoin:round;stroke-miterlimit:4;stroke-dasharray:none;stroke-dashoffset:0;stroke-opacity:1;color-rendering:auto;image-rendering:auto;shape-rendering:auto;text-rendering:auto;enable-background:accumulate"/></g></g></svg>